<svg width="86" height="45" viewBox="0 0 86 45" fill="none" xmlns="http://www.w3.org/2000/svg">
<path d="M42.9436 0L44.1214 2.38178L46.7505 2.75922L44.8503 4.61389L45.2993 7.22994L42.9436 6L40.5943 7.22994L41.0433 4.61389L39.1431 2.75922L41.7722 2.38178L42.9436 0Z" fill="#FFD825"/>
<path d="M30.4555 2.31677L32.3427 4.18445L34.9522 3.68988L33.7614 6.05864L35.0368 8.38836L32.4143 7.98489L30.5922 9.92416L30.1627 7.30159L27.7614 6.16927L30.1236 4.95235L30.4555 2.31677Z" fill="#FFD825"/>
<path d="M19.1779 9.54029L21.6964 10.3928L23.8243 8.80493L23.7918 11.46L25.9588 12.9958L23.4209 13.7832L22.6335 16.3212L21.0977 14.1477L18.4426 14.1867L20.0369 12.0587L19.1779 9.54029Z" fill="#FFD825"/>
<path d="M62.0435 8.75916L64.2235 10.2689L66.7094 9.32532L65.9481 11.8698L67.614 13.9392L64.9589 14.0043L63.5077 16.2234L62.6227 13.7179L60.0652 13.0281L62.1736 11.4143L62.0435 8.75916Z" fill="#FFD825"/>
<path d="M55.5879 2.31042L55.9393 4.93949L58.308 6.1434L55.9197 7.28874L55.5098 9.9113L53.6746 7.99156L51.0521 8.41455L52.3145 6.07832L51.1041 3.71607L53.7137 4.19112L55.5879 2.31042Z" fill="#FFD825"/>
<path d="M0.175704 39.6964H85.3602V45.0001H0C0 45.0001 0.442516 39.4361 0.175704 39.6964Z" fill="#FFD825"/>
<path d="M2.90884 43.6334C2.96741 43.731 3.039 43.8091 3.13661 43.8677C3.22772 43.9263 3.33835 43.9718 3.4685 43.9979C3.59865 44.0239 3.7288 44.0434 3.85895 44.0434C3.95006 44.0434 4.04767 44.0369 4.1518 44.0239C4.25592 44.0109 4.35353 43.9848 4.44464 43.9458C4.53574 43.9067 4.61383 43.8547 4.6724 43.7896C4.73097 43.7245 4.76351 43.6399 4.76351 43.5358C4.76351 43.4252 4.72446 43.3341 4.64637 43.2625C4.56828 43.1909 4.45765 43.1388 4.3275 43.0933C4.19735 43.0477 4.04767 43.0087 3.88498 42.9762C3.71579 42.9436 3.5531 42.9046 3.3839 42.859C3.20819 42.82 3.039 42.7744 2.8698 42.7159C2.70711 42.6573 2.55743 42.5922 2.42728 42.5011C2.29713 42.41 2.19301 42.2994 2.10841 42.1692C2.03032 42.0391 1.98477 41.8764 1.98477 41.6877C1.98477 41.4794 2.03683 41.2972 2.14095 41.141C2.24507 40.9848 2.37522 40.8547 2.54442 40.7506C2.70711 40.6464 2.89583 40.5683 3.10407 40.5228C3.31231 40.4707 3.52056 40.4447 3.73531 40.4447C3.9826 40.4447 4.21687 40.4707 4.43813 40.5163C4.6659 40.5618 4.86112 40.6399 5.03683 40.7506C5.21253 40.8547 5.34919 40.9913 5.45332 41.1605C5.55744 41.3297 5.6095 41.5315 5.6095 41.7657H4.61384C4.60733 41.6421 4.57479 41.5445 4.52273 41.4599C4.47067 41.3818 4.40559 41.3167 4.32099 41.2712C4.23639 41.2256 4.14529 41.1931 4.03466 41.1735C3.93054 41.154 3.8134 41.1475 3.68325 41.1475C3.59865 41.1475 3.51405 41.154 3.43596 41.167C3.35136 41.1801 3.27978 41.2061 3.20819 41.2451C3.14312 41.2842 3.08455 41.3297 3.039 41.3883C2.99344 41.4469 2.97392 41.5185 2.97392 41.6031C2.97392 41.6811 2.99344 41.7462 3.02598 41.7983C3.05852 41.8503 3.1301 41.8959 3.23422 41.9349C3.33835 41.9805 3.48151 42.0195 3.65722 42.0586C3.83943 42.0976 4.0737 42.1562 4.36655 42.2213C4.45765 42.2343 4.57479 42.2603 4.73097 42.3059C4.88715 42.3449 5.03683 42.41 5.19301 42.4946C5.34269 42.5857 5.47934 42.7028 5.58997 42.846C5.7006 42.9957 5.75917 43.1844 5.75917 43.4122C5.75917 43.6009 5.72013 43.7766 5.63553 43.9328C5.55093 44.0955 5.42729 44.2321 5.2646 44.3493C5.10191 44.4664 4.90017 44.5575 4.65288 44.6226C4.4121 44.6877 4.13227 44.7202 3.8134 44.7202C3.5531 44.7202 3.30581 44.6942 3.06503 44.6356C2.82425 44.577 2.60949 44.4924 2.42077 44.3753C2.23856 44.2582 2.08889 44.1085 1.97826 43.9198C1.86763 43.7375 1.81557 43.5163 1.82208 43.269H2.81774C2.81774 43.4057 2.84377 43.5228 2.90234 43.6204" fill="#283069"/>
<path d="M12.1626 44.3297C11.8112 44.5966 11.3166 44.7332 10.6984 44.7332C10.0802 44.7332 9.5726 44.5966 9.2277 44.3297C8.8828 44.0629 8.70709 43.6464 8.70709 43.0933V40.5488H9.73529V43.0933C9.73529 43.2039 9.74831 43.3146 9.76783 43.4187C9.78735 43.5228 9.83291 43.6204 9.90449 43.705C9.97607 43.7896 10.0737 43.8547 10.1973 43.9068C10.321 43.9588 10.4902 43.9848 10.6984 43.9848C11.0628 43.9848 11.3166 43.9133 11.4598 43.7701C11.603 43.6269 11.668 43.3992 11.668 43.0998V40.5553H12.6963V43.0998C12.6963 43.653 12.5205 44.0694 12.1691 44.3363" fill="#283069"/>
<path d="M18.0391 40.549C18.3319 40.549 18.5792 40.588 18.7874 40.6596C18.9957 40.7312 19.1584 40.8353 19.2885 40.9525C19.4187 41.0761 19.5098 41.2128 19.5684 41.3689C19.6269 41.5251 19.6595 41.6878 19.6595 41.857C19.6595 42.0262 19.6334 42.1824 19.5684 42.3386C19.5098 42.4948 19.4187 42.6379 19.2885 42.7616C19.1584 42.8852 18.9892 42.9828 18.7874 43.0544C18.5792 43.126 18.3319 43.165 18.0391 43.165H16.9588V44.6358H15.9306V40.5425H18.0391V40.549ZM17.7592 42.4752C17.8764 42.4752 17.987 42.4687 18.0976 42.4557C18.2083 42.4427 18.3059 42.4102 18.384 42.3646C18.4686 42.3191 18.5336 42.2605 18.5857 42.1759C18.6378 42.0978 18.6638 41.9937 18.6638 41.8635C18.6638 41.7334 18.6378 41.6292 18.5857 41.5447C18.5336 41.4666 18.4686 41.4015 18.384 41.3559C18.2994 41.3104 18.2018 41.2843 18.0976 41.2648C17.987 41.2518 17.8764 41.2453 17.7592 41.2453H16.9588V42.4752H17.7592Z" fill="#283069"/>
<path d="M26.1476 40.5488V41.3037H23.6812V42.1822H25.9459V42.8851H23.6812V43.8872H26.1997V44.6421H22.653V40.5488H26.1476Z" fill="#283069"/>
<path d="M31.7701 40.5488C31.9783 40.5488 32.167 40.5814 32.3362 40.6399C32.5054 40.6985 32.6486 40.7831 32.7657 40.8807C32.8829 40.9848 32.9805 41.102 33.039 41.2386C33.1041 41.3753 33.1367 41.5185 33.1367 41.6746C33.1367 41.9154 33.0781 42.1237 32.961 42.2994C32.8438 42.4751 32.6551 42.6052 32.3948 42.7028V42.7159C32.5249 42.7484 32.6291 42.794 32.7072 42.859C32.7918 42.9241 32.8568 42.9957 32.9089 43.0803C32.961 43.1649 33 43.2625 33.026 43.3666C33.0521 43.4707 33.0651 43.5749 33.0781 43.679C33.0781 43.7441 33.0846 43.8222 33.0911 43.9068C33.0976 43.9913 33.1041 44.0825 33.1106 44.1736C33.1236 44.2647 33.1367 44.3493 33.1627 44.4339C33.1887 44.5185 33.2213 44.5835 33.2668 44.6421H32.2386C32.18 44.512 32.1475 44.3558 32.1345 44.1736C32.1215 43.9913 32.102 43.8221 32.0759 43.6595C32.0434 43.4447 31.9653 43.2885 31.8547 43.1909C31.744 43.0933 31.5553 43.0412 31.3015 43.0412H30.2733V44.6421H29.2451V40.5488H31.7636H31.7701ZM31.4056 42.4035C31.6399 42.4035 31.8156 42.3579 31.9328 42.2668C32.0499 42.1757 32.1085 42.0261 32.1085 41.8178C32.1085 41.6096 32.0499 41.4729 31.9328 41.3818C31.8156 41.2907 31.6399 41.2451 31.4056 41.2451H30.2798V42.397H31.4056V42.4035Z" fill="#283069"/>
<path d="M37.7767 40.5488L38.8699 43.3666H38.8829L39.9177 40.5488H41.3623V44.6421H40.4057V41.7397H40.3927L39.2474 44.6421H38.4534L37.3081 41.7723H37.2951V44.6421H36.332V40.5488H37.7767Z" fill="#283069"/>
<path d="M48.1172 40.5488V41.3037H45.6508V42.1822H47.9155V42.8851H45.6508V43.8872H48.1758V44.6421H44.6226V40.5488H48.1172Z" fill="#283069"/>
<path d="M53.7397 40.5488C53.9479 40.5488 54.1367 40.5814 54.3059 40.6399C54.4751 40.6985 54.6182 40.7831 54.7354 40.8807C54.8525 40.9848 54.9501 41.102 55.0087 41.2386C55.0738 41.3753 55.1063 41.5185 55.1063 41.6746C55.1063 41.9154 55.0477 42.1237 54.9306 42.2994C54.8134 42.4751 54.6247 42.6052 54.3644 42.7028V42.7159C54.4946 42.7484 54.5987 42.794 54.6768 42.859C54.7614 42.9241 54.8265 42.9957 54.8785 43.0803C54.9306 43.1649 54.9696 43.2625 54.9957 43.3666C55.0217 43.4707 55.0347 43.5749 55.0477 43.679C55.0477 43.7441 55.0542 43.8222 55.0607 43.9068C55.0672 43.9913 55.0738 44.0825 55.0803 44.1736C55.0933 44.2647 55.1063 44.3493 55.1323 44.4339C55.1584 44.5185 55.1909 44.5835 55.2429 44.6421H54.2147C54.1562 44.512 54.1236 44.3558 54.1106 44.1736C54.0976 43.9913 54.0781 43.8221 54.0521 43.6595C54.0195 43.4447 53.9414 43.2885 53.8308 43.1909C53.7202 43.0933 53.5315 43.0412 53.2777 43.0412H52.2495V44.6421H51.2213V40.5488H53.7397ZM53.3753 42.4035C53.6095 42.4035 53.7852 42.3579 53.9024 42.2668C54.0195 42.1757 54.0781 42.0261 54.0781 41.8178C54.0781 41.6096 54.0195 41.4729 53.9024 41.3818C53.7852 41.2907 53.6095 41.2451 53.3753 41.2451H52.2495V42.397H53.3753V42.4035Z" fill="#283069"/>
<path d="M61.3016 41.6421C61.243 41.5575 61.165 41.4794 61.0738 41.4143C60.9827 41.3493 60.8786 41.2972 60.7615 41.2647C60.6443 41.2256 60.5272 41.2126 60.3971 41.2126C60.1628 41.2126 59.9676 41.2516 59.8049 41.3297C59.6422 41.4078 59.512 41.5119 59.4144 41.6421C59.3168 41.7722 59.2387 41.9219 59.1932 42.0911C59.1476 42.2603 59.1216 42.436 59.1216 42.6117C59.1216 42.7874 59.1476 42.9501 59.1932 43.1128C59.2387 43.2755 59.3103 43.4187 59.4144 43.5488C59.512 43.679 59.6487 43.7831 59.8049 43.8612C59.9676 43.9393 60.1628 43.9783 60.3971 43.9783C60.7094 43.9783 60.9567 43.8937 61.1324 43.7245C61.3081 43.5553 61.4188 43.3341 61.4578 43.0608H62.4535C62.4274 43.3211 62.3558 43.5488 62.2517 43.7571C62.1411 43.9653 61.9979 44.141 61.8222 44.2842C61.64 44.4273 61.4318 44.538 61.191 44.6161C60.9502 44.6942 60.6899 44.7332 60.3971 44.7332C60.0391 44.7332 59.7203 44.6811 59.4339 44.5705C59.1476 44.4599 58.9068 44.3102 58.7116 44.1215C58.5164 43.9328 58.3667 43.705 58.2626 43.4447C58.1584 43.1844 58.1064 42.9111 58.1064 42.6117C58.1064 42.3124 58.1584 42.0195 58.2626 41.7592C58.3667 41.4989 58.5164 41.2712 58.7116 41.0759C58.9068 40.8807 59.1476 40.731 59.4339 40.6139C59.7203 40.5033 60.0391 40.4447 60.3971 40.4447C60.6574 40.4447 60.8981 40.4772 61.1259 40.5423C61.3537 40.6074 61.5619 40.6985 61.7441 40.8286C61.9263 40.9523 62.076 41.1085 62.1932 41.2907C62.3103 41.4729 62.3819 41.6877 62.4144 41.9219H61.4188C61.3992 41.8178 61.3602 41.7267 61.3016 41.6356" fill="#283069"/>
<path d="M67.8417 40.5488L69.5922 44.6421H68.525L68.1736 43.731H66.4295L66.0651 44.6421H65.0304L66.8005 40.5488H67.8547H67.8417ZM67.9002 43.0608L67.3081 41.5575H67.295L66.6898 43.0608H67.9002Z" fill="#283069"/>
<path d="M74.3688 40.5488C74.6681 40.5488 74.948 40.5944 75.2083 40.6725C75.4686 40.7571 75.6898 40.8807 75.8851 41.0499C76.0803 41.2191 76.2235 41.4274 76.3276 41.6811C76.4317 41.9349 76.4903 42.2278 76.4903 42.5727C76.4903 42.872 76.4447 43.1454 76.3601 43.3992C76.2755 43.653 76.1389 43.8677 75.9631 44.0499C75.7874 44.2321 75.5662 44.3753 75.2994 44.4859C75.0391 44.59 74.7267 44.6421 74.3688 44.6421H72.3514V40.5488H74.3688ZM74.2972 43.8872C74.4469 43.8872 74.59 43.8677 74.7267 43.8221C74.8699 43.7831 74.9935 43.7115 75.0976 43.6139C75.2083 43.5163 75.2929 43.3861 75.3579 43.23C75.423 43.0738 75.4556 42.8851 75.4556 42.6573C75.4556 42.449 75.436 42.2668 75.3905 42.0976C75.3449 41.9284 75.2668 41.7918 75.1627 41.6681C75.0586 41.551 74.9219 41.4599 74.7462 41.3948C74.577 41.3297 74.3623 41.2972 74.1085 41.2972H73.3731V43.8807H74.2907L74.2972 43.8872Z" fill="#283069"/>
<path d="M79.5098 41.7592C79.6139 41.4989 79.7636 41.2712 79.9588 41.0759C80.1541 40.8807 80.3948 40.731 80.6812 40.6139C80.9675 40.5033 81.2864 40.4447 81.6443 40.4447C82.0022 40.4447 82.3276 40.5033 82.6139 40.6139C82.9003 40.7245 83.1345 40.8742 83.3363 41.0759C83.5315 41.2712 83.6812 41.4989 83.7918 41.7592C83.8959 42.0195 83.948 42.3059 83.948 42.6117C83.948 42.9176 83.8959 43.1909 83.7918 43.4447C83.6877 43.705 83.538 43.9263 83.3363 44.1215C83.1411 44.3102 82.9003 44.4599 82.6139 44.5705C82.3276 44.6811 82.0087 44.7332 81.6443 44.7332C81.2799 44.7332 80.9675 44.6811 80.6812 44.5705C80.3948 44.4599 80.1541 44.3102 79.9588 44.1215C79.7636 43.9328 79.6139 43.705 79.5098 43.4447C79.4057 43.1844 79.3536 42.9111 79.3536 42.6117C79.3536 42.3124 79.4057 42.0195 79.5098 41.7592ZM80.4469 43.1128C80.4925 43.2755 80.5641 43.4252 80.6682 43.5553C80.7658 43.6855 80.8959 43.7896 81.0586 43.8677C81.2213 43.9458 81.4165 43.9848 81.6508 43.9848C81.8851 43.9848 82.0803 43.9458 82.243 43.8677C82.4057 43.7896 82.5358 43.6855 82.6335 43.5553C82.7376 43.4252 82.8092 43.2755 82.8547 43.1128C82.9003 42.9501 82.9263 42.7809 82.9263 42.6117C82.9263 42.4295 82.9003 42.2603 82.8547 42.0911C82.8092 41.9219 82.7376 41.7722 82.6335 41.6421C82.5358 41.5119 82.4057 41.4078 82.243 41.3232C82.0803 41.2451 81.8851 41.2061 81.6508 41.2061C81.4165 41.2061 81.2213 41.2451 81.0586 41.3232C80.8959 41.4013 80.7658 41.5054 80.6682 41.6421C80.5706 41.7722 80.4925 41.9219 80.4469 42.0911C80.4014 42.2603 80.3753 42.436 80.3753 42.6117C80.3753 42.7874 80.4014 42.9501 80.4469 43.1128Z" fill="#283069"/>
<path d="M20.974 29.1736C20.974 26.6291 20.6291 24.82 19.9262 23.7463C19.2234 22.6725 17.9414 21.9697 16.0803 21.6573C15.0325 21.4751 13.2234 21.3905 10.6594 21.3905C7.75704 21.3905 5.62255 21.5467 4.24294 21.8656C2.63556 22.23 1.52276 23.0369 0.911047 24.2604C0.611698 24.8525 0.409962 25.5163 0.30584 26.2582C0.201719 26.9935 0.149658 28.0933 0.149658 29.551C0.149658 31.4968 0.286317 32.9415 0.559636 33.8786C0.839463 34.8092 1.34706 35.5641 2.08241 36.1172C2.78523 36.6508 3.73534 37.0218 4.93274 37.2365C6.13665 37.4513 7.84815 37.5684 10.0803 37.5684C12.7874 37.5684 14.8243 37.4448 16.1779 37.191C17.538 36.9437 18.5857 36.5011 19.3275 35.8504C20.1866 35.1215 20.6941 33.9176 20.8568 32.2452H15.1171C15.039 32.7137 14.9089 33.0391 14.7267 33.2278C14.4924 33.4621 14.0499 33.6313 13.4121 33.7224C12.7744 33.8265 11.8113 33.8721 10.5293 33.8721C8.51192 33.8721 7.22342 33.6638 6.65075 33.2343C6.35791 33.0131 6.15617 32.7332 6.05856 32.3949C5.95444 32.0565 5.90888 31.4968 5.90888 30.7159H20.9479C20.9675 29.9155 20.9805 29.4014 20.9805 29.1541M5.90888 27.5662C5.94793 26.4925 6.28632 25.7896 6.90454 25.4512C7.52927 25.1129 8.81778 24.9437 10.7505 24.9437C12.9176 24.9437 14.2386 25.1975 14.7397 25.705C14.9154 25.8873 15.026 26.089 15.0846 26.3233C15.1367 26.551 15.1757 26.9675 15.2017 27.5662H5.91539H5.90888Z" fill="white"/>
<path d="M43.0087 37.1781H37.5944V34.8744H37.3016C36.8525 35.8636 36.1237 36.5534 35.1345 36.9633C34.1389 37.3733 32.6682 37.5816 30.7224 37.5816C28.9393 37.5816 27.5272 37.4319 26.4794 37.1325C25.4252 36.8332 24.5662 36.3386 23.8699 35.6423C23.1671 34.92 22.7115 34.1325 22.5033 33.267C22.282 32.395 22.1779 30.9243 22.1779 28.8289V21.7876H27.9306V28.8289C27.9306 29.9482 27.9827 30.7486 28.0868 31.2236C28.1974 31.6987 28.4057 32.0892 28.7246 32.395C29.0564 32.7139 29.4794 32.9352 30.0066 33.0523C30.5402 33.1759 31.3536 33.2345 32.4534 33.2345C34.3211 33.2345 35.5771 32.9482 36.2473 32.3755C36.6573 32.0111 36.9306 31.5555 37.0673 30.9894C37.204 30.4167 37.269 29.4145 37.269 27.9829V21.7811H43.0218V37.1716L43.0087 37.1781Z" fill="white"/>
<path d="M44.2908 21.7809H49.7051V24.1041H49.9979C50.5381 23.1149 51.2604 22.4186 52.165 22.0021C53.0695 21.5922 54.332 21.3839 55.9524 21.3839C58.2691 21.3839 59.883 21.8394 60.8005 22.7505C61.7051 23.6616 62.1606 25.2755 62.1606 27.5987C62.1606 27.7353 62.1541 28.0802 62.1346 28.6334H56.7138C56.7138 27.7353 56.6227 27.1041 56.4274 26.7397C56.05 26.0629 55.1454 25.7245 53.6812 25.7245C52.3146 25.7245 51.345 26.0954 50.7723 26.8373C50.486 27.2082 50.2908 27.6702 50.1932 28.2104C50.0956 28.757 50.0435 29.616 50.0435 30.7874V37.1713H44.2908V21.7809Z" fill="white"/>
<path d="M84.4751 24.9631C84.1953 24.0781 83.6747 23.3492 82.9198 22.8026C82.191 22.2689 81.1693 21.9045 79.8808 21.6963C78.5792 21.488 76.6205 21.3839 74.0109 21.3839C70.5879 21.3904 68.1866 21.5987 66.8005 21.9891C65.4144 22.3861 64.4252 23.1345 63.846 24.2603C63.5532 24.8134 63.3645 25.4186 63.2669 26.0824C63.1627 26.7462 63.1172 27.7093 63.1172 28.9783C63.1172 31.2039 63.2343 32.7982 63.4751 33.7418C63.7159 34.6789 64.1844 35.4468 64.8938 36.0325C65.6356 36.6442 66.6313 37.0542 67.8677 37.2625C69.1107 37.4707 71.1671 37.5748 74.0304 37.5748C77.2777 37.5748 79.5879 37.4056 80.9936 37.0737C82.679 36.6833 83.7918 35.7657 84.345 34.3275C84.5597 33.7614 84.7029 33.1171 84.7875 32.3948C84.8656 31.6854 84.9046 30.6117 84.9046 29.18C84.9046 27.2538 84.768 25.8416 84.4946 24.9566M78.2474 32.5444C77.6291 32.9935 76.2365 33.2277 74.0565 33.2277C72.1432 33.2277 70.8287 33.0585 70.1063 32.7136C69.6313 32.4989 69.3059 32.1735 69.1302 31.7375C68.9675 31.3015 68.8764 30.5857 68.8764 29.577C68.8764 28.5683 68.974 27.7939 69.1823 27.2733C69.3775 26.7462 69.7289 26.3817 70.2105 26.1605C70.8873 25.8611 72.1693 25.718 74.076 25.718C75.8526 25.718 77.102 25.8742 77.8374 26.1995C78.332 26.4078 78.6703 26.7462 78.8656 27.2082C79.0543 27.6768 79.1584 28.4186 79.1584 29.4338C79.1584 31.0542 78.8461 32.0954 78.2474 32.5509" fill="white"/>
</svg>
